{"title":"Recognize 2012 DVDRip x264 AAC-UNiQUE ","uid":7800140,"size":1539716716,"categoryP":"video","categoryS":"movies","magnet":"?xt=urn:btih:306d5fc674c2638cf64afb436f54f4039d3c3709&amp;dn=Recognize+2012+DVDRip+x264+AAC-UNiQUE+&amp;tr=udp%3A%2F%2Ftracker.openbittorrent.com%3A80&amp;tr=udp%3A%2F%2Fopen.demonii.com%3A1337&amp;tr=udp%3A%2F%2Ftracker.coppersurfer.tk%3A6969&amp;tr=udp%3A%2F%2Fexodus.desync.com%3A6969","seeders":1,"leechers":0,"uploader":"MANTESH","files":4,"time":1352258452,"description":"\n &lt;a href=&quot;\nhttp://i1292.photobucket.com/albums/b566/MrLamia/rec_zpse135c52b.jpg&quot; rel=&quot;nofollow&quot; target=&quot;_NEW&quot;&gt;\nhttp://i1292.photobucket.com/albums/b566/MrLamia/rec_zpse135c52b.jpg&lt;/a&gt;\n\n\nGeneral\n Complete name: Recognize 2012 DVDRip x264 AAC-UNiQUE.mp4\n Format: MPEG-4\n Format profile: Base Media\n Codec ID: isom\n File size: 1.40 GiB\n Duration: 1h 32mn\n Overall bit rate mode: Variable\n Overall bit rate: 2 171 Kbps\n Encoded date: UTC 2012-11-06 23:38:57\n\n Video\n ID: 1\n Format: AVC\n Format/Info: Advanced Video Codec\n Format profile: &lt;a class=&quot;__cf_email__&quot; href=&quot;/cdn-cgi/l/email-protection&quot; data-cfemail=&quot;85cdece2edc5c9b1abb4&quot;&gt;[email&amp;#160;protected]&lt;/a&gt;&lt;script cf-hash='f9e31' type=&quot;text/javascript&quot;&gt;\n/* &lt;![CDATA[ */!function(){try{var t=&quot;currentScript&quot;in document?document.currentScript:function(){for(var t=document.getElementsByTagName(&quot;script&quot;),e=t.length;e--;)if(t[e].getAttribute(&quot;cf-hash&quot;))return t[e]}();if(t&amp;&amp;t.previousSibling){var e,r,n,i,c=t.previousSibling,a=c.getAttribute(&quot;data-cfemail&quot;);if(a){for(e=&quot;&quot;,r=parseInt(a.substr(0,2),16),n=2;a.length-n;n+=2)i=parseInt(a.substr(n,2),16)^r,e+=String.fromCharCode(i);e=document.createTextNode(e),c.parentNode.replaceChild(e,c)}}}catch(u){}}();/* ]]&gt; */&lt;/script&gt;\n Format settings, CABAC: Yes\n Format settings, ReFrames: 3 frames\n Codec ID: avc1\n Codec ID/Info: Advanced Video Coding\n Duration: 1h 32mn\n Bit rate mode: Variable\n Bit rate: 2 052 Kbps\n Maximum bit rate: 40.0 Mbps\n Width: 720 pixels\n Height: 384 pixels\n Display aspect ratio: 1.85:1\n Frame rate mode: Constant\n Frame rate: 23.976 fps\n Color space: YUV\n Chroma subsampling: 4:2:0\n Bit depth: 8 bits\n Scan type: Progressive\n Bits/(Pixel*Frame): 0.310\n Stream size: 1.32 GiB (94%)\n Writing library: x264 core 128 r2216 198a7ea\n\n Audio\n ID: 2\n Format: AAC\n Format/Info: Advanced Audio Codec\n Format profile: LC\n Codec ID: 40\n Duration: 1h 32mn\n Bit rate mode: Variable\n Bit rate: 116 Kbps\n Maximum bit rate: 159 Kbps\n Channel(s): 2 channels\n Channel positions: Front: L R\n Sampling rate: 48.0 KHz\n Compression mode: Lossy\n Stream size: 76.3 MiB (5%)\n Language: English\n Encoded date: UTC 2012-11-06 23:39:32\n\n Sources: RETAIL HK INC - Thanks!\n\n Storyline\n Derrill Davis aka Dee Dee lives the life as a professional used car salesman by day and one of Atlanta's most deadly and feared undercover street gangsters by night. He hooks up partner oneway Boobe aka Ray and does a string of crimes that involve robbing, kidnapping and the killing of well-known drug dealers\n\n iMDB: http://www.imdb.com/title/tt2175098/\n\n\n &lt;a href=&quot;\nhttp://screenshot.ru/images/ovGgA.jpg&quot; rel=&quot;nofollow&quot; target=&quot;_NEW&quot;&gt;\nhttp://screenshot.ru/images/ovGgA.jpg&lt;/a&gt;\n\n","torrent":{"xt":"urn:btih:306d5fc674c2638cf64afb436f54f4039d3c3709","amp;dn":"Recognize+2012+DVDRip+x264+AAC-UNiQUE+","amp;tr":["udp%3A%2F%2Ftracker.openbittorrent.com%3A80","udp%3A%2F%2Fopen.demonii.com%3A1337","udp%3A%2F%2Ftracker.coppersurfer.tk%3A6969","udp%3A%2F%2Fexodus.desync.com%3A6969"],"infoHash":"306d5fc674c2638cf64afb436f54f4039d3c3709","infoHashBuffer":{"type":"Buffer","data":[48,109,95,198,116,194,99,140,246,74,251,67,111,84,244,3,157,60,55,9]},"announce":[],"urlList":[]}}